<svg fill="none" xmlns="http://www.w3.org/2000/svg" viewBox="0 0 563 569" style="background-color:white">
  <path d="M211.5 120l110-109.5L555 244 443 352.5" stroke="#1063FF"/>
  <path d="M151.8 179.8l60-60 111.5.2 120.2 120.2-.4 112.3-119.8 119.7H211.4l-120-119.4.6-113.1 59.8-59.9h0z" stroke="#000"/>
  <circle cx="267.5" cy="296.5" r="81" stroke="#000"/>
  <circle cx="267.5" cy="296.5" r="45" stroke="#000"/>
  <path d="M338 134a65.4 65.4 0 1092 92M196.9 133.9a65.4 65.4 0 11-92 92M105.3 366.6A65.4 65.4 0 01222 407.5c0 20.7-9.6 39.2-24.7 51.2M429.6 366.5a65.4 65.4 0 00-116.6 41c0 20.7 9.6 39.2 24.6 51.2M443.5 353a56.5 56.5 0 100-113M91.5 353a56.5 56.5 0 110-113M211 472a57 57 0 0056.5 57 57 57 0 0056.5-57M211 120.5a56.5 56.5 0 11113 0" stroke="#000"/>
  <path d="M451.5 102h-1l-4.4-6.6v6.6H445v-8.5h1.1l4.3 6.6v-6.6h1.1v8.5zM291.1 293.5h-2v3.5H288v-8.5h2.8c1 0 1.7.2 2.2.6.5.5.8 1.1.8 2 0 .5-.1 1-.4 1.3-.3.4-.7.7-1.2 1l2 3.5v.1H293l-1.9-3.5zm-2-.9h1.7c.6 0 1-.1 1.4-.4.3-.3.5-.7.5-1.2s-.2-.9-.5-1.2c-.3-.3-.8-.4-1.4-.4h-1.7v3.2zm9.6 4.4h-1.1v-7.2l-2.2.8v-1l3.1-1.2h.2v8.6zM294.1 240.5h-2v3.5H291v-8.5h2.8c1 0 1.7.2 2.2.6.5.5.8 1.1.8 2 0 .5-.1 1-.4 1.3-.3.4-.7.7-1.2 1l2 3.5v.1H296l-1.9-3.5zm-2-.9h1.7c.6 0 1-.1 1.4-.4.3-.3.5-.7.5-1.2s-.2-.9-.5-1.2c-.3-.3-.8-.4-1.4-.4h-1.7v3.2zm11.6 4.4H298v-.8l3-3.3.9-1.2.2-1c0-.4-.1-.7-.4-1-.3-.3-.6-.5-1-.5-.6 0-1 .2-1.3.5-.3.3-.5.7-.5 1.3h-1c0-.8.2-1.4.7-2 .5-.4 1.2-.6 2-.6s1.4.2 2 .6c.4.4.6 1 .6 1.6 0 .9-.5 1.9-1.6 3l-2.3 2.5h4.3v.9zM183.1 396.5h-2v3.5H180v-8.5h2.8c1 0 1.7.2 2.2.6.5.5.8 1.1.8 2 0 .5-.1 1-.4 1.3-.3.4-.7.7-1.2 1l2 3.5v.1H185l-1.9-3.5zm-2-.9h1.7c.6 0 1-.1 1.4-.4.3-.3.5-.7.5-1.2s-.2-.9-.5-1.2c-.3-.3-.8-.4-1.4-.4h-1.7v3.2zm10.6 1.5h1.2v1h-1.2v1.9h-1.1v-2h-3.9v-.6l3.8-6h1.2v5.7zm-3.8 0h2.7V393l-.1.2-2.6 4z" fill="#000"/>
  <path d="M299.5 265.5L268 298l11.5-81M152 413.5l42.5-59.5M91.5 297.5l-53-20" stroke="#1063FF"/>
  <path d="M67.1 273.5h-2v3.5H64v-8.5h2.8c1 0 1.7.2 2.2.6.5.5.8 1.1.8 2 0 .5-.1 1-.4 1.3-.3.4-.7.7-1.2 1l2 3.5v.1H69l-1.9-3.5zm-2-.9h1.7c.6 0 1-.1 1.4-.4.3-.3.5-.7.5-1.2s-.2-.9-.5-1.2c-.3-.3-.8-.4-1.4-.4h-1.7v3.2zm7.6-.4h.8c.5 0 1-.1 1.2-.4.3-.3.4-.6.4-1 0-1-.5-1.6-1.5-1.6-.4 0-.8.2-1 .4-.4.3-.5.7-.5 1.1h-1c0-.7.2-1.2.7-1.7.5-.4 1-.6 1.8-.6.9 0 1.5.2 2 .6.4.4.6 1 .6 1.8 0 .3-.1.7-.3 1-.3.4-.6.7-1 .8.5.2.8.4 1 .8.3.3.5.7.5 1.2 0 .8-.3 1.4-.8 1.8-.5.5-1.1.7-2 .7-.7 0-1.4-.2-1.9-.6-.5-.5-.8-1-.8-1.8H72c0 .5.2.9.5 1.1.3.3.7.4 1.2.4s.9-.1 1.2-.4c.2-.3.4-.6.4-1.2 0-.5-.2-.8-.5-1.1a2 2 0 00-1.3-.4h-.8v-.9z" fill="#000"/>
</svg>
