<svg fill="none" xmlns="http://www.w3.org/2000/svg" viewBox="0 0 563 601">
  <path stroke="#000" d="M35.4 296.1l232-232 232 232-232 232z"/>
  <circle cx="267.5" cy="296.5" r="81" stroke="#000"/>
  <circle cx="267.5" cy="296.5" r="45" stroke="#000"/>
  <circle cx="378.5" cy="185.5" r="65" stroke="#000"/>
  <circle cx="156.5" cy="185.5" r="65" stroke="#000"/>
  <circle cx="156.5" cy="407.5" r="65" stroke="#000"/>
  <circle cx="378.5" cy="407.5" r="65" stroke="#000"/>
  <circle cx="443.5" cy="296.5" r="56" stroke="#000"/>
  <circle cx="91.5" cy="296.5" r="56" stroke="#000"/>
  <circle cx="267.5" cy="472.5" r="56" transform="rotate(90 267.5 472.5)" stroke="#000"/>
  <circle cx="267.5" cy="120.5" r="56" transform="rotate(90 267.5 120.5)" stroke="#000"/>
  <path d="M451.5 102h-1l-4.4-6.6v6.6H445v-8.5h1.1l4.3 6.6v-6.6h1.1v8.5zM293.1 295.5h-2v3.5H290v-8.5h2.8c1 0 1.7.2 2.2.6.5.5.8 1.1.8 2 0 .5-.1 1-.4 1.3-.3.4-.7.7-1.2 1l2 3.5v.1H295l-1.9-3.5zm-2-.9h1.7c.6 0 1-.1 1.4-.4.3-.3.5-.7.5-1.2s-.2-.9-.5-1.2c-.3-.3-.8-.4-1.4-.4h-1.7v3.2zm9.6 4.4h-1.1v-7.2l-2.2.8v-1l3.1-1.2h.2v8.6zM256.1 269.5h-2v3.5H253v-8.5h2.8c1 0 1.7.2 2.2.6.5.5.8 1.1.8 2 0 .5-.1 1-.4 1.3-.3.4-.7.7-1.2 1l2 3.5v.1H258l-1.9-3.5zm-2-.9h1.7c.6 0 1-.1 1.4-.4.3-.3.5-.7.5-1.2s-.2-.9-.5-1.2c-.3-.3-.8-.4-1.4-.4h-1.7v3.2zm11.6 4.4H260v-.8l3-3.3.9-1.2.2-1c0-.4-.1-.7-.4-1-.3-.3-.6-.5-1-.5-.6 0-1 .2-1.3.5-.3.3-.5.7-.5 1.3h-1c0-.8.2-1.4.7-2 .5-.4 1.2-.6 2-.6s1.4.2 2 .6c.4.4.6 1 .6 1.6 0 .9-.5 1.9-1.6 3l-2.3 2.5h4.3v.9zM157.1 377.5h-2v3.5H154v-8.5h2.8c1 0 1.7.2 2.2.6.5.5.8 1.1.8 2 0 .5-.1 1-.4 1.3-.3.4-.7.7-1.2 1l2 3.5v.1H159l-1.9-3.5zm-2-.9h1.7c.6 0 1-.1 1.4-.4.3-.3.5-.7.5-1.2s-.2-.9-.5-1.2c-.3-.3-.8-.4-1.4-.4h-1.7v3.2zm10.6 1.5h1.2v1h-1.2v1.9h-1.1v-2h-3.9v-.6l3.8-6h1.2v5.7zm-3.8 0h2.7V374l-.1.2-2.6 4zM177 589v-8.5h2.4c.7 0 1.4.1 2 .5.5.3 1 .8 1.3 1.4.3.6.5 1.3.5 2v.6c0 .8-.2 1.5-.5 2.1-.3.6-.8 1-1.3 1.4-.6.3-1.3.5-2 .5H177zm1.1-7.6v6.7h1.2c.9 0 1.5-.3 2-.8.5-.6.7-1.3.7-2.3v-.5c0-1-.2-1.8-.6-2.3-.5-.5-1.1-.8-2-.8h-1.3z" fill="#000"/>
  <path d="M267.5 64.5l54-54L555 244l-54 54M295 261l-27.5 37.5 12-81.5M153 412.5l40.5-56.5" stroke="#1063FF"/>
  <path d="M268.5 297v266H92V297M91.5 297.5l37-43.5" stroke="#1063FF"/>
  <path d="M93.1 273.5h-2v3.5H90v-8.5h2.8c1 0 1.7.2 2.2.6.5.5.8 1.1.8 2 0 .5-.1 1-.4 1.3-.3.4-.7.7-1.2 1l2 3.5v.1H95l-1.9-3.5zm-2-.9h1.7c.6 0 1-.1 1.4-.4.3-.3.5-.7.5-1.2s-.2-.9-.5-1.2c-.3-.3-.8-.4-1.4-.4h-1.7v3.2zm7.6-.4h.8c.5 0 1-.1 1.2-.4.3-.3.4-.6.4-1 0-1-.5-1.6-1.5-1.6-.4 0-.8.2-1 .4-.4.3-.5.7-.5 1.1h-1c0-.7.2-1.2.7-1.7.5-.4 1-.6 1.8-.6.9 0 1.5.2 2 .6.4.4.6 1 .6 1.8 0 .3-.1.7-.3 1-.3.4-.6.7-1 .8.5.2.8.4 1 .8.3.3.5.7.5 1.2 0 .8-.3 1.4-.8 1.8-.5.5-1.1.7-2 .7-.7 0-1.4-.2-1.9-.6-.5-.5-.8-1-.8-1.8H98c0 .5.2.9.5 1.1.3.3.7.4 1.2.4s.9-.1 1.2-.4c.2-.3.4-.6.4-1.2 0-.5-.2-.8-.5-1.1a2 2 0 00-1.3-.4h-.8v-.9z" fill="#000"/>
</svg>
